<svg xmlns="http://www.w3.org/2000/svg" xmlns:xlink="http://www.w3.org/1999/xlink" id="VA" viewBox="0 0 1440 1200"><defs><mask id="mask" width="2422.05" height="2422.04" x="-491.02" y="-657.27" maskUnits="userSpaceOnUse"><path fill="url(#linear-gradient)" d="M-254.32-420.56h1948.63v1948.62H-254.32z" transform="rotate(16.51 719.997 553.745)"/></mask><mask id="mask-1" width="2695.11" height="2695.12" x="-523.09" y="-850.55" maskUnits="userSpaceOnUse"><path fill="url(#linear-gradient-2)" d="M-149.85-477.3h1948.63v1948.62H-149.85z" transform="rotate(-32.96 824.35 496.989)"/></mask><mask id="mask-2" width="345.3" height="345.3" x="1013.8" y="221.48" maskUnits="userSpaceOnUse"><circle cx="1186.45" cy="394.13" r="172.61" fill="url(#linear-gradient-3)"/></mask><mask id="mask-3" width="499.57" height="499.57" x="804.84" y="-127.34" maskUnits="userSpaceOnUse"><circle cx="1054.62" cy="122.44" r="249.73" fill="url(#linear-gradient-4)"/></mask><mask id="mask-4" width="345.31" height="345.31" x="1013.79" y="221.48" maskUnits="userSpaceOnUse"><circle cx="1186.45" cy="394.13" r="172.61" fill="url(#radial-gradient)"/></mask><linearGradient id="linear-gradient" x1="5578.92" x2="5578.92" y1="2005.32" y2="56.7" gradientTransform="matrix(1 0 0 -1 -4858.93 1584.75)" gradientUnits="userSpaceOnUse"><stop offset="0" stop-color="#fff"/><stop offset=".06" stop-color="#fff" stop-opacity=".8"/><stop offset=".12" stop-color="#fff" stop-opacity=".59"/><stop offset=".18" stop-color="#fff" stop-opacity=".41"/><stop offset=".25" stop-color="#fff" stop-opacity=".26"/><stop offset=".31" stop-color="#fff" stop-opacity=".15"/><stop offset=".38" stop-color="#fff" stop-opacity=".07"/><stop offset=".44" stop-color="#fff" stop-opacity=".02"/><stop offset=".5" stop-color="#fff" stop-opacity="0"/></linearGradient><linearGradient xlink:href="#linear-gradient" id="linear-gradient-2" x1="7455.72" x2="7455.72" y1="-7269.31" y2="-9217.93" gradientTransform="matrix(1 0 0 -1 -6631.24 -7746.62)"/><linearGradient id="linear-gradient-3" x1="19232.75" x2="19577.98" y1="10616.6" y2="10616.6" gradientTransform="rotate(64.12 18456.13 -9039.683)" gradientUnits="userSpaceOnUse"><stop offset="0" stop-color="#fff"/><stop offset=".09" stop-color="#fff" stop-opacity=".78"/><stop offset=".22" stop-color="#fff" stop-opacity=".5"/><stop offset=".33" stop-color="#fff" stop-opacity=".29"/><stop offset=".43" stop-color="#fff" stop-opacity=".13"/><stop offset=".5" stop-color="#fff" stop-opacity=".04"/><stop offset=".55" stop-color="#fff" stop-opacity="0"/></linearGradient><linearGradient xlink:href="#linear-gradient-3" id="linear-gradient-4" x1="-10709.33" x2="-10209.87" y1="2950.7" y2="2950.7" gradientTransform="rotate(-115.88 -5588.272 -2068.994)"/><radialGradient id="radial-gradient" cx="4456.78" cy="-7528.5" r="108.51" fx="4456.78" fy="-7528.5" gradientTransform="rotate(113.46 -118.994 -11177.626) scale(2.26)" gradientUnits="userSpaceOnUse"><stop offset=".6" stop-color="#fff" stop-opacity="0"/><stop offset=".66" stop-color="#fff" stop-opacity=".01"/><stop offset=".72" stop-color="#fff" stop-opacity=".05"/><stop offset=".76" stop-color="#fff" stop-opacity=".12"/><stop offset=".81" stop-color="#fff" stop-opacity=".21"/><stop offset=".85" stop-color="#fff" stop-opacity=".33"/><stop offset=".9" stop-color="#fff" stop-opacity=".48"/><stop offset=".94" stop-color="#fff" stop-opacity=".66"/><stop offset=".97" stop-color="#fff" stop-opacity=".86"/><stop offset="1" stop-color="#fff"/></radialGradient><clipPath id="clippath"><path fill="none" d="M0 0h1440v1200H0z"/></clipPath><style>.cls-5{fill:#3448eb}.cls-6{fill:#394eff}</style></defs><g clip-path="url(#clippath)"><g mask="url(#mask)"><path d="m302.942-586.075 1387.867 411.37c132.58 39.296 208.308 178.83 169.012 311.408l-411.37 1387.868c-39.296 132.579-178.83 208.308-311.408 169.011l-1387.868-411.368c-132.579-39.297-208.308-178.831-169.011-311.41L-8.468-417.063c39.297-132.58 178.831-208.308 311.41-169.012Z" class="cls-5"/></g><g mask="url(#mask-1)"><path d="M-312.903 73.22 901.665-714.324c116.024-75.232 271.291-42.115 346.523 73.909l787.544 1214.567c75.232 116.024 42.116 271.291-73.908 346.523L747.256 1708.22c-116.024 75.231-271.291 42.115-346.523-73.909L-386.81 419.743c-75.232-116.024-42.116-271.29 73.908-346.523Z" class="cls-5"/></g><g mask="url(#mask-2)"><circle cx="1186.45" cy="394.13" r="170.18" class="cls-6"/></g><g mask="url(#mask-3)"><circle cx="1054.62" cy="122.44" r="246.21" class="cls-6"/></g><g mask="url(#mask-4)"><circle cx="1186.45" cy="394.13" r="170.18" fill="#49e6cd"/></g></g></svg>